# File exported by ArtStage version 0.6.0
v -0.05257311 0.08506508 0.00000000
v -0.08090170 0.04999998 0.03090170
v -0.03090169 0.08090172 0.05000001
v -0.08506511 0.00000001 0.05257314
v -0.05000001 0.03090171 0.08090174
v 0.00000000 0.05257315 0.08506514
v 0.00000001 0.09999996 -0.00000001
v 0.03090171 0.08090170 0.05000000
v 0.05257313 0.08506506 -0.00000001
v -0.03090170 0.08090170 -0.05000001
v 0.03090170 0.08090169 -0.05000004
v -0.00000001 0.05257308 -0.08506512
v -0.08090171 0.05000004 -0.03090168
v -0.05000002 0.03090166 -0.08090176
v -0.08506508 0.00000001 -0.05257314
v -0.10000000 0.00000004 0.00000003
v 0.08090173 0.05000003 0.03090171
v 0.05000001 0.03090166 0.08090171
v 0.08506508 -0.00000001 0.05257314
v 0.00000000 0.00000000 0.10000010
v -0.05000000 -0.03090173 0.08090173
v 0.00000001 -0.05257308 0.08506512
v -0.08090171 -0.04999997 0.03090172
v -0.08090173 -0.05000003 -0.03090171
v -0.05257313 -0.08506506 0.00000001
v -0.05000001 -0.03090166 -0.08090171
v 0.00000000 0.00000000 -0.10000010
v 0.00000000 -0.05257315 -0.08506514
v 0.05000000 0.03090173 -0.08090173
v 0.08090171 0.04999997 -0.03090172
v 0.08506511 -0.00000001 -0.05257314
v 0.05257311 -0.08506508 0.00000000
v 0.08090174 -0.05000004 0.03090168
v 0.03090170 -0.08090170 0.05000001
v 0.05000002 -0.03090166 0.08090176
v -0.00000001 -0.09999996 0.00000001
v -0.03090170 -0.08090169 0.05000004
v 0.03090169 -0.08090172 -0.05000001
v -0.03090171 -0.08090170 -0.05000000
v 0.08090170 -0.04999998 -0.03090170
v 0.05000001 -0.03090171 -0.08090174
v 0.10000000 -0.00000004 -0.00000004
vt 0.00000 0.00000
vn -0.58312910 0.74878330 0.31509380
vn -0.74878350 0.31509470 0.58312830
vn -0.57735060 0.57735050 0.57734970
vn -0.31509450 0.58312910 0.74878290
vn -0.26803420 0.94352250 0.19473810
vn 0.00000036 0.77786830 0.62842730
vn 0.00000038 0.93417260 0.35682120
vn 0.26803460 0.94352240 0.19473830
vn -0.26803430 0.94352250 -0.19473850
vn 0.26803470 0.94352240 -0.19473840
vn -0.00000005 0.93417260 -0.35682150
vn -0.00000021 0.77786730 -0.62842850
vn -0.58312850 0.74878380 -0.31509370
vn -0.31509370 0.58312900 -0.74878330
vn -0.57735020 0.57735050 -0.57735010
vn -0.74878380 0.31509400 -0.58312850
vn -0.77786730 0.62842850 0.00000067
vn -0.94352210 0.19473880 -0.26803520
vn -0.93417220 0.35682270 0.00000044
vn -0.94352190 0.19473950 0.26803500
vn 0.58312830 0.74878410 0.31509340
vn 0.31509530 0.58312870 0.74878290
vn 0.57734980 0.57735020 0.57735080
vn 0.74878330 0.31509360 0.58312920
vn -0.19473910 0.26803450 0.94352220
vn -0.62842820 -0.00000017 0.77786770
vn -0.35682230 -0.00000016 0.93417220
vn -0.19473860 -0.26803530 0.94352210
vn -0.94352210 -0.19473920 0.26803480
vn -0.94352230 -0.19473820 -0.26803500
vn -0.93417240 -0.35682200 0.00000051
vn -0.77786730 -0.62842860 0.00000072
vn -0.62842860 -0.00000067 -0.77786730
vn -0.19473850 0.26803530 -0.94352220
vn -0.35682230 -0.00000074 -0.93417230
vn -0.19473980 -0.26803460 -0.94352210
vn 0.31509320 0.58312900 -0.74878360
vn 0.58312900 0.74878350 -0.31509370
vn 0.57735060 0.57735050 -0.57734970
vn 0.74878350 0.31509440 -0.58312850
vn 0.58312820 -0.74878410 0.31509360
vn 0.74878360 -0.31509350 0.58312860
vn 0.57734990 -0.57735050 0.57735040
vn 0.31509370 -0.58312900 0.74878330
vn 0.26803430 -0.94352250 0.19473850
vn 0.00000021 -0.77786730 0.62842850
vn 0.00000006 -0.93417260 0.35682150
vn -0.26803470 -0.94352240 0.19473840
vn 0.26803420 -0.94352250 -0.19473810
vn -0.26803460 -0.94352240 -0.19473830
vn -0.00000037 -0.93417270 -0.35682120
vn -0.00000036 -0.77786830 -0.62842730
vn 0.58312910 -0.74878330 -0.31509380
vn 0.31509450 -0.58312910 -0.74878290
vn 0.57735060 -0.57735050 -0.57734970
vn 0.74878350 -0.31509470 -0.58312830
vn 0.77786710 -0.62842880 -0.00000104
vn 0.94352220 -0.19473940 -0.26803450
vn 0.93417250 -0.35682190 -0.00000091
vn 0.94352240 -0.19473800 0.26803480
vn 0.19473850 -0.26803530 0.94352220
vn 0.62842860 0.00000068 0.77786730
vn 0.35682230 0.00000074 0.93417230
vn 0.19473980 0.26803460 0.94352210
vn -0.58312900 -0.74878350 0.31509380
vn -0.31509320 -0.58312900 0.74878360
vn -0.57735060 -0.57735050 0.57734970
vn -0.74878350 -0.31509440 0.58312850
vn -0.31509530 -0.58312870 -0.74878290
vn -0.58312830 -0.74878410 -0.31509340
vn -0.57734980 -0.57735020 -0.57735080
vn -0.74878330 -0.31509360 -0.58312910
vn 0.62842820 0.00000017 -0.77786770
vn 0.19473910 -0.26803450 -0.94352220
vn 0.35682230 0.00000016 -0.93417220
vn 0.19473860 0.26803540 -0.94352210
vn 0.94352250 0.19473800 0.26803450
vn 0.94352230 0.19473900 -0.26803430
vn 0.93417250 0.35682150 -0.00000053
vn 0.77786730 0.62842860 -0.00000072
vc 1.00000000 1.00000000 1.00000000 1.00000000
g Icosphere-clone
f 1/1/1/1 2/1/1/1 3/1/1/1
f 2/1/2/1 4/1/2/1 5/1/2/1
f 2/1/3/1 5/1/3/1 3/1/3/1
f 3/1/4/1 5/1/4/1 6/1/4/1
f 1/1/5/1 3/1/5/1 7/1/5/1
f 3/1/6/1 6/1/6/1 8/1/6/1
f 3/1/7/1 8/1/7/1 7/1/7/1
f 7/1/8/1 8/1/8/1 9/1/8/1
f 1/1/9/1 7/1/9/1 10/1/9/1
f 7/1/10/1 9/1/10/1 11/1/10/1
f 7/1/11/1 11/1/11/1 10/1/11/1
f 10/1/12/1 11/1/12/1 12/1/12/1
f 1/1/13/1 10/1/13/1 13/1/13/1
f 10/1/14/1 12/1/14/1 14/1/14/1
f 10/1/15/1 14/1/15/1 13/1/15/1
f 13/1/16/1 14/1/16/1 15/1/16/1
f 1/1/17/1 13/1/17/1 2/1/17/1
f 13/1/18/1 15/1/18/1 16/1/18/1
f 13/1/19/1 16/1/19/1 2/1/19/1
f 2/1/20/1 16/1/20/1 4/1/20/1
f 9/1/21/1 8/1/21/1 17/1/21/1
f 8/1/22/1 6/1/22/1 18/1/22/1
f 8/1/23/1 18/1/23/1 17/1/23/1
f 17/1/24/1 18/1/24/1 19/1/24/1
f 6/1/25/1 5/1/25/1 20/1/25/1
f 5/1/26/1 4/1/26/1 21/1/26/1
f 5/1/27/1 21/1/27/1 20/1/27/1
f 20/1/28/1 21/1/28/1 22/1/28/1
f 4/1/29/1 16/1/29/1 23/1/29/1
f 16/1/30/1 15/1/30/1 24/1/30/1
f 16/1/31/1 24/1/31/1 23/1/31/1
f 23/1/32/1 24/1/32/1 25/1/32/1
f 15/1/33/1 14/1/33/1 26/1/33/1
f 14/1/34/1 12/1/34/1 27/1/34/1
f 14/1/35/1 27/1/35/1 26/1/35/1
f 26/1/36/1 27/1/36/1 28/1/36/1
f 12/1/37/1 11/1/37/1 29/1/37/1
f 11/1/38/1 9/1/38/1 30/1/38/1
f 11/1/39/1 30/1/39/1 29/1/39/1
f 29/1/40/1 30/1/40/1 31/1/40/1
f 32/1/41/1 33/1/41/1 34/1/41/1
f 33/1/42/1 19/1/42/1 35/1/42/1
f 33/1/43/1 35/1/43/1 34/1/43/1
f 34/1/44/1 35/1/44/1 22/1/44/1
f 32/1/45/1 34/1/45/1 36/1/45/1
f 34/1/46/1 22/1/46/1 37/1/46/1
f 34/1/47/1 37/1/47/1 36/1/47/1
f 36/1/48/1 37/1/48/1 25/1/48/1
f 32/1/49/1 36/1/49/1 38/1/49/1
f 36/1/50/1 25/1/50/1 39/1/50/1
f 36/1/51/1 39/1/51/1 38/1/51/1
f 38/1/52/1 39/1/52/1 28/1/52/1
f 32/1/53/1 38/1/53/1 40/1/53/1
f 38/1/54/1 28/1/54/1 41/1/54/1
f 38/1/55/1 41/1/55/1 40/1/55/1
f 40/1/56/1 41/1/56/1 31/1/56/1
f 32/1/57/1 40/1/57/1 33/1/57/1
f 40/1/58/1 31/1/58/1 42/1/58/1
f 40/1/59/1 42/1/59/1 33/1/59/1
f 33/1/60/1 42/1/60/1 19/1/60/1
f 22/1/61/1 35/1/61/1 20/1/61/1
f 35/1/62/1 19/1/62/1 18/1/62/1
f 35/1/63/1 18/1/63/1 20/1/63/1
f 20/1/64/1 18/1/64/1 6/1/64/1
f 25/1/65/1 37/1/65/1 23/1/65/1
f 37/1/66/1 22/1/66/1 21/1/66/1
f 37/1/67/1 21/1/67/1 23/1/67/1
f 23/1/68/1 21/1/68/1 4/1/68/1
f 28/1/69/1 39/1/69/1 26/1/69/1
f 39/1/70/1 25/1/70/1 24/1/70/1
f 39/1/71/1 24/1/71/1 26/1/71/1
f 26/1/72/1 24/1/72/1 15/1/72/1
f 31/1/73/1 41/1/73/1 29/1/73/1
f 41/1/74/1 28/1/74/1 27/1/74/1
f 41/1/75/1 27/1/75/1 29/1/75/1
f 29/1/76/1 27/1/76/1 12/1/76/1
f 19/1/77/1 42/1/77/1 17/1/77/1
f 42/1/78/1 31/1/78/1 30/1/78/1
f 42/1/79/1 30/1/79/1 17/1/79/1
f 17/1/80/1 30/1/80/1 9/1/80/1
